<svg width="97" height="28" viewBox="0 0 97 28" fill="none" xmlns="http://www.w3.org/2000/svg">
<path d="M13.4922 14.0117C13.0137 13.1572 12.4041 12.5306 11.6636 12.1318C10.9344 11.7331 10.0856 11.5337 9.11719 11.5337C8.37663 11.5337 7.68164 11.6875 7.03223 11.9951C6.38281 12.3027 5.81315 12.7414 5.32324 13.311C4.84473 13.8807 4.46305 14.5757 4.17822 15.396C3.90479 16.2049 3.76807 17.1107 3.76807 18.1133C3.76807 19.1045 3.90479 19.9989 4.17822 20.7964C4.46305 21.5939 4.85042 22.2775 5.34033 22.8472C5.83024 23.4054 6.39421 23.8384 7.03223 24.146C7.68164 24.4422 8.37663 24.5903 9.11719 24.5903C10.2109 24.5903 11.1623 24.3283 11.9712 23.8042C12.7801 23.2687 13.4238 22.4883 13.9023 21.4629L16.5342 22.7617C16.1924 23.4909 15.7708 24.146 15.2695 24.7271C14.7682 25.3081 14.1986 25.8037 13.5605 26.2139C12.9339 26.624 12.2389 26.9373 11.4756 27.1538C10.7236 27.3817 9.92611 27.4956 9.08301 27.4956C7.85254 27.4956 6.71322 27.2677 5.66504 26.812C4.62826 26.3449 3.72819 25.6955 2.96484 24.8638C2.21289 24.0321 1.62614 23.0409 1.20459 21.8901C0.78304 20.7394 0.572266 19.4805 0.572266 18.1133C0.572266 16.7461 0.794434 15.4871 1.23877 14.3364C1.68311 13.1857 2.29264 12.2002 3.06738 11.3799C3.84212 10.5482 4.74788 9.89876 5.78467 9.43164C6.82145 8.96452 7.93229 8.73096 9.11719 8.73096C10.2337 8.73096 11.2876 8.92464 12.2788 9.31201C13.2814 9.69938 14.1587 10.2861 14.9106 11.0723H16.7051V14.0117H13.4922ZM19.5762 18.1475C19.5876 16.7461 19.8097 15.4701 20.2427 14.3193C20.687 13.1686 21.3022 12.1831 22.0884 11.3628C22.8745 10.5311 23.8088 9.89307 24.8911 9.44873C25.9735 9.00439 27.1641 8.78223 28.4629 8.78223C29.7731 8.78223 30.9694 9.00439 32.0518 9.44873C33.1455 9.89307 34.0798 10.5254 34.8545 11.3457C35.6292 12.1546 36.2331 13.1344 36.666 14.2852C37.099 15.4359 37.3154 16.7119 37.3154 18.1133C37.3154 19.4919 37.099 20.7622 36.666 21.9243C36.2331 23.075 35.6292 24.0662 34.8545 24.8979C34.0798 25.7297 33.1455 26.3791 32.0518 26.8462C30.9694 27.3019 29.7731 27.5298 28.4629 27.5298C27.1299 27.5298 25.9222 27.3019 24.8398 26.8462C23.7575 26.3905 22.8289 25.7524 22.0542 24.9321C21.2795 24.1004 20.6756 23.1092 20.2427 21.9585C19.8097 20.8078 19.5876 19.5374 19.5762 18.1475ZM22.9429 18.1475C22.9429 19.1615 23.0853 20.0786 23.3701 20.8989C23.6663 21.7192 24.0651 22.4199 24.5664 23.001C25.0791 23.5706 25.6659 24.015 26.3267 24.334C26.9989 24.6416 27.7109 24.7954 28.4629 24.7954C29.249 24.7954 29.9782 24.6416 30.6504 24.334C31.334 24.0264 31.9264 23.5877 32.4277 23.0181C32.929 22.437 33.3221 21.7363 33.6069 20.916C33.8918 20.0957 34.0342 19.1729 34.0342 18.1475C34.0342 17.0765 33.8918 16.1252 33.6069 15.2935C33.3221 14.4618 32.929 13.7668 32.4277 13.2085C31.9378 12.6502 31.3511 12.2287 30.6675 11.9438C29.9839 11.659 29.249 11.5166 28.4629 11.5166C27.7109 11.5166 26.9989 11.659 26.3267 11.9438C25.6659 12.2287 25.0791 12.6502 24.5664 13.2085C24.0651 13.7668 23.6663 14.4618 23.3701 15.2935C23.0853 16.1252 22.9429 17.0765 22.9429 18.1475ZM39.4004 9.29492H45.5186V12.2344H43.8608L48.2358 24.4365L52.5083 12.2344H51.4316V9.29492H57.0371V12.2344H55.5161L49.7227 27.2734H46.5781L40.8018 12.2344H39.4004V9.29492ZM59.4297 9.29492H65.2061V24.0605H67.8721V27H59.4639V24.0605H61.9932V12.2344H59.4297V9.29492ZM61.395 3.02295C61.395 2.72673 61.452 2.44759 61.5659 2.18555C61.6912 1.91211 61.8507 1.67855 62.0444 1.48486C62.2495 1.27979 62.4888 1.12028 62.7622 1.00635C63.0356 0.881022 63.3262 0.818359 63.6338 0.818359C63.93 0.818359 64.2091 0.881022 64.4712 1.00635C64.7446 1.12028 64.9782 1.27979 65.1719 1.48486C65.377 1.67855 65.5365 1.91211 65.6504 2.18555C65.7757 2.44759 65.8384 2.72673 65.8384 3.02295C65.8384 3.33057 65.7757 3.62109 65.6504 3.89453C65.5365 4.16797 65.377 4.41292 65.1719 4.62939C64.9782 4.83447 64.7446 4.99967 64.4712 5.125C64.2091 5.23893 63.93 5.2959 63.6338 5.2959C63.3262 5.2959 63.0356 5.23893 62.7622 5.125C62.4888 4.99967 62.2495 4.83447 62.0444 4.62939C61.8507 4.41292 61.6912 4.16797 61.5659 3.89453C61.452 3.62109 61.395 3.33057 61.395 3.02295ZM81.2534 0.408203H86.8418V24.0605H89.4395V27H83.6631V25.5474C83.0934 26.1284 82.4326 26.5841 81.6807 26.9146C80.9287 27.2336 80.0742 27.3931 79.1172 27.3931C77.9209 27.3931 76.8044 27.188 75.7676 26.7778C74.7422 26.3563 73.8478 25.7467 73.0845 24.9492C72.3325 24.1403 71.7401 23.1548 71.3071 21.9927C70.8856 20.8192 70.6748 19.4805 70.6748 17.9766C70.6748 16.6094 70.8799 15.3675 71.29 14.251C71.7002 13.123 72.2812 12.166 73.0332 11.3799C73.7852 10.5824 74.6909 9.96712 75.7505 9.53418C76.8101 9.08984 77.9893 8.86768 79.2881 8.86768C80.1426 8.86768 80.923 8.96452 81.6294 9.1582C82.3358 9.34049 83.0137 9.6652 83.6631 10.1323V3.34766H81.2534V0.408203ZM79.5273 24.6245C80.473 24.6245 81.2648 24.4878 81.9028 24.2144C82.5409 23.9295 83.1276 23.508 83.6631 22.9497V13.0376C83.0934 12.5591 82.4383 12.2116 81.6978 11.9951C80.9572 11.7786 80.1995 11.6704 79.4248 11.6704C78.6729 11.6704 77.9665 11.8128 77.3057 12.0977C76.6449 12.3711 76.0638 12.7756 75.5625 13.311C75.0726 13.8465 74.6852 14.5016 74.4004 15.2764C74.1156 16.0511 73.9731 16.9398 73.9731 17.9424C73.9731 19.0361 74.1099 19.9989 74.3833 20.8306C74.6567 21.6623 75.0384 22.363 75.5283 22.9326C76.0182 23.4909 76.605 23.9124 77.2886 24.1973C77.9722 24.4821 78.7184 24.6245 79.5273 24.6245ZM92.4131 24.9321C92.4131 24.6359 92.4701 24.3568 92.584 24.0947C92.7093 23.8213 92.8745 23.5877 93.0796 23.394C93.2847 23.189 93.5182 23.0295 93.7803 22.9155C94.0537 22.7902 94.3442 22.7275 94.6519 22.7275C94.9481 22.7275 95.2272 22.7902 95.4893 22.9155C95.7627 23.0295 95.9963 23.189 96.1899 23.394C96.395 23.5877 96.5545 23.8213 96.6685 24.0947C96.7938 24.3568 96.8564 24.6359 96.8564 24.9321C96.8564 25.2397 96.7938 25.5303 96.6685 25.8037C96.5545 26.0771 96.395 26.3221 96.1899 26.5386C95.9963 26.7437 95.7627 26.9032 95.4893 27.0171C95.2272 27.1424 94.9481 27.2051 94.6519 27.2051C94.3442 27.2051 94.0537 27.1424 93.7803 27.0171C93.5182 26.9032 93.2847 26.7437 93.0796 26.5386C92.8745 26.3221 92.7093 26.0771 92.584 25.8037C92.4701 25.5303 92.4131 25.2397 92.4131 24.9321Z" fill="black"/>
</svg>
