<svg width="72" height="80" viewBox="0 0 72 80" fill="none" xmlns="http://www.w3.org/2000/svg">
<mask id="mask0_1_191" style="mask-type:alpha" maskUnits="userSpaceOnUse" x="0" y="0" width="72" height="80">
<path d="M30.055 64.425V47.7583H41.8139V64.425C41.8139 66.2583 43.1368 67.7583 44.7536 67.7583H53.5728C55.1897 67.7583 56.5125 66.2583 56.5125 64.425V41.0917H61.5101C62.8623 41.0917 63.5091 39.1917 62.4802 38.1917L37.904 13.0917C36.7869 11.9583 35.0819 11.9583 33.9648 13.0917L9.38867 38.1917C8.38916 39.1917 9.00651 41.0917 10.3588 41.0917H15.3563V64.425C15.3563 66.2583 16.6792 67.7583 18.2961 67.7583H27.1152C28.7321 67.7583 30.055 66.2583 30.055 64.425Z" fill="#6D7D8B"/>
</mask>
<g mask="url(#mask0_1_191)">
<rect x="-2.15793" y="-14.4" width="83.2531" height="102.4" fill="#6F42C1"/>
</g>
</svg>
